    <svg xmlns="http://www.w3.org/2000/svg" viewBox="0 0 1440 320">
        <path fill="#3f51b5" fill-opacity="1"
            d="M0,160L26.7,165.3C53.3,171,107,181,160,165.3C213.3,149,267,107,320,101.3C373.3,96,427,128,480,128C533.3,128,587,96,640,96C693.3,96,747,128,800,149.3C853.3,171,907,181,960,165.3C1013.3,149,1067,107,1120,101.3C1173.3,96,1227,128,1280,144C1333.3,160,1387,160,1413,160L1440,160L1440,0L1413.3,0C1386.7,0,1333,0,1280,0C1226.7,0,1173,0,1120,0C1066.7,0,1013,0,960,0C906.7,0,853,0,800,0C746.7,0,693,0,640,0C586.7,0,533,0,480,0C426.7,0,373,0,320,0C266.7,0,213,0,160,0C106.7,0,53,0,27,0L0,0Z">
        </path>
    </svg>
